# Blender v2.78 (sub 0) OBJ File: ''
# www.blender.org
mtllib coin.mtl
o Circle
v 0.200000 0.000000 -1.000000
v 0.200000 0.195090 -0.980785
v 0.200000 0.382683 -0.923880
v 0.200000 0.555570 -0.831470
v 0.200000 0.707107 -0.707107
v 0.200000 0.831470 -0.555570
v 0.200000 0.923880 -0.382683
v 0.200000 0.980785 -0.195090
v 0.200000 1.000000 -0.000000
v 0.200000 0.980785 0.195090
v 0.200000 0.923880 0.382683
v 0.200000 0.831470 0.555570
v 0.200000 0.707107 0.707107
v 0.200000 0.555570 0.831470
v 0.200000 0.382683 0.923880
v 0.200000 0.195090 0.980785
v 0.200000 -0.000000 1.000000
v 0.200000 -0.195091 0.980785
v 0.200000 -0.382684 0.923879
v 0.200000 -0.555571 0.831469
v 0.200000 -0.707107 0.707106
v 0.200000 -0.831470 0.555570
v 0.200000 -0.923880 0.382683
v 0.200000 -0.980785 0.195089
v 0.200000 -1.000000 -0.000001
v 0.200000 -0.980785 -0.195091
v 0.200000 -0.923879 -0.382684
v 0.200000 -0.831469 -0.555571
v 0.200000 -0.707106 -0.707108
v 0.200000 -0.555569 -0.831470
v 0.200000 -0.382682 -0.923880
v 0.200000 -0.195089 -0.980786
v 0.200000 0.000000 -0.800000
v 0.200000 0.156072 -0.784628
v 0.200000 0.306147 -0.739104
v 0.200000 0.444456 -0.665176
v 0.200000 0.565685 -0.565686
v 0.200000 0.665176 -0.444456
v 0.200000 0.739104 -0.306147
v 0.200000 0.784628 -0.156072
v 0.200000 0.800000 -0.000000
v 0.200000 0.784628 0.156072
v 0.200000 0.739104 0.306147
v 0.200000 0.665176 0.444456
v 0.200000 0.565685 0.565685
v 0.200000 0.444456 0.665176
v 0.200000 0.306147 0.739104
v 0.200000 0.156072 0.784628
v 0.200000 -0.000000 0.800000
v 0.200000 -0.156073 0.784628
v 0.200000 -0.306147 0.739103
v 0.200000 -0.444457 0.665175
v 0.200000 -0.565686 0.565685
v 0.200000 -0.665176 0.444456
v 0.200000 -0.739104 0.306146
v 0.200000 -0.784628 0.156072
v 0.200000 -0.800000 -0.000001
v 0.200000 -0.784628 -0.156073
v 0.200000 -0.739103 -0.306148
v 0.200000 -0.665175 -0.444457
v 0.200000 -0.565685 -0.565686
v 0.200000 -0.444455 -0.665176
v 0.200000 -0.306146 -0.739104
v 0.200000 -0.156071 -0.784629
v 0.100000 0.000000 -0.800000
v 0.100000 0.156072 -0.784628
v 0.100000 0.306147 -0.739104
v 0.100000 0.444456 -0.665176
v 0.100000 0.565685 -0.565686
v 0.100000 0.665176 -0.444456
v 0.100000 0.739104 -0.306147
v 0.100000 0.784628 -0.156072
v 0.100000 0.800000 -0.000000
v 0.100000 0.784628 0.156072
v 0.100000 0.739104 0.306147
v 0.100000 0.665176 0.444456
v 0.100000 0.565685 0.565685
v 0.100000 0.444456 0.665176
v 0.100000 0.306147 0.739104
v 0.100000 0.156072 0.784628
v 0.100000 -0.000000 0.800000
v 0.100000 -0.156073 0.784628
v 0.100000 -0.306147 0.739103
v 0.100000 -0.444457 0.665175
v 0.100000 -0.565686 0.565685
v 0.100000 -0.665176 0.444456
v 0.100000 -0.739104 0.306146
v 0.100000 -0.784628 0.156072
v 0.100000 -0.800000 -0.000001
v 0.100000 -0.784628 -0.156073
v 0.100000 -0.739103 -0.306148
v 0.100000 -0.665175 -0.444457
v 0.100000 -0.565685 -0.565686
v 0.100000 -0.444455 -0.665176
v 0.100000 -0.306146 -0.739104
v 0.100000 -0.156071 -0.784629
v 0.100000 0.000000 -0.000000
v 0.100000 0.000000 -0.000000
v 0.100000 0.000000 -0.000000
v 0.100000 0.000000 -0.000000
v 0.100000 0.000000 -0.000000
v 0.100000 0.000000 -0.000000
v 0.100000 0.000000 -0.000000
v 0.100000 0.000000 -0.000000
v 0.100000 0.000000 -0.000000
v 0.100000 0.000000 -0.000000
v 0.100000 0.000000 -0.000000
v 0.100000 0.000000 -0.000000
v 0.100000 0.000000 -0.000000
v 0.100000 0.000000 -0.000000
v 0.100000 0.000000 -0.000000
v 0.100000 0.000000 -0.000000
v 0.100000 0.000000 -0.000000
v 0.100000 0.000000 -0.000000
v 0.100000 0.000000 -0.000000
v 0.100000 0.000000 -0.000000
v 0.100000 0.000000 -0.000000
v 0.100000 0.000000 -0.000000
v 0.100000 0.000000 -0.000000
v 0.100000 0.000000 -0.000000
v 0.100000 0.000000 -0.000000
v 0.100000 0.000000 -0.000000
v 0.100000 0.000000 -0.000000
v 0.100000 0.000000 -0.000000
v 0.100000 0.000000 -0.000000
v 0.100000 0.000000 -0.000000
v 0.100000 0.000000 -0.000000
v 0.100000 0.000000 -0.000000
v 0.000000 0.000000 -1.000000
v -0.000000 0.195090 -0.980785
v -0.000000 0.382683 -0.923880
v -0.000000 0.555570 -0.831470
v -0.000000 0.707107 -0.707107
v -0.000000 0.831470 -0.555570
v -0.000000 0.923880 -0.382683
v -0.000000 0.980785 -0.195090
v -0.000000 1.000000 -0.000000
v -0.000000 0.980785 0.195090
v -0.000000 0.923880 0.382683
v -0.000000 0.831470 0.555570
v -0.000000 0.707107 0.707107
v -0.000000 0.555570 0.831470
v -0.000000 0.382683 0.923880
v -0.000000 0.195090 0.980785
v 0.000000 -0.000000 1.000000
v 0.000000 -0.195091 0.980785
v 0.000000 -0.382684 0.923879
v 0.000000 -0.555571 0.831469
v 0.000000 -0.707107 0.707106
v 0.000000 -0.831470 0.555570
v 0.000000 -0.923880 0.382683
v 0.000000 -0.980785 0.195089
v 0.000000 -1.000000 -0.000001
v 0.000000 -0.980785 -0.195091
v 0.000000 -0.923879 -0.382684
v 0.000000 -0.831469 -0.555571
v 0.000000 -0.707106 -0.707108
v 0.000000 -0.555569 -0.831470
v 0.000000 -0.382682 -0.923880
v 0.000000 -0.195089 -0.980786
v -0.200000 -0.000000 -1.000000
v -0.200000 0.195090 -0.980785
v -0.200000 0.382683 -0.923880
v -0.200000 0.555570 -0.831470
v -0.200000 0.707107 -0.707107
v -0.200000 0.831470 -0.555570
v -0.200000 0.923880 -0.382683
v -0.200000 0.980785 -0.195090
v -0.200000 1.000000 -0.000000
v -0.200000 0.980785 0.195090
v -0.200000 0.923880 0.382683
v -0.200000 0.831470 0.555570
v -0.200000 0.707107 0.707107
v -0.200000 0.555570 0.831470
v -0.200000 0.382683 0.923880
v -0.200000 0.195090 0.980785
v -0.200000 -0.000000 1.000000
v -0.200000 -0.195091 0.980785
v -0.200000 -0.382684 0.923879
v -0.200000 -0.555571 0.831469
v -0.200000 -0.707107 0.707106
v -0.200000 -0.831470 0.555570
v -0.200000 -0.923880 0.382683
v -0.200000 -0.980785 0.195089
v -0.200000 -1.000000 -0.000001
v -0.200000 -0.980785 -0.195091
v -0.200000 -0.923879 -0.382684
v -0.200000 -0.831469 -0.555571
v -0.200000 -0.707106 -0.707108
v -0.200000 -0.555569 -0.831470
v -0.200000 -0.382682 -0.923880
v -0.200000 -0.195089 -0.980786
v -0.200000 -0.000000 -0.800000
v -0.200000 0.156072 -0.784628
v -0.200000 0.306147 -0.739104
v -0.200000 0.444456 -0.665176
v -0.200000 0.565685 -0.565686
v -0.200000 0.665176 -0.444456
v -0.200000 0.739104 -0.306147
v -0.200000 0.784628 -0.156072
v -0.200000 0.800000 -0.000000
v -0.200000 0.784628 0.156072
v -0.200000 0.739104 0.306147
v -0.200000 0.665176 0.444456
v -0.200000 0.565685 0.565685
v -0.200000 0.444456 0.665176
v -0.200000 0.306147 0.739104
v -0.200000 0.156072 0.784628
v -0.200000 -0.000000 0.800000
v -0.200000 -0.156073 0.784628
v -0.200000 -0.306147 0.739103
v -0.200000 -0.444457 0.665175
v -0.200000 -0.565686 0.565685
v -0.200000 -0.665176 0.444456
v -0.200000 -0.739104 0.306146
v -0.200000 -0.784628 0.156072
v -0.200000 -0.800000 -0.000001
v -0.200000 -0.784628 -0.156073
v -0.200000 -0.739103 -0.306148
v -0.200000 -0.665175 -0.444457
v -0.200000 -0.565685 -0.565686
v -0.200000 -0.444455 -0.665176
v -0.200000 -0.306146 -0.739104
v -0.200000 -0.156071 -0.784629
v -0.100000 0.000000 -0.800000
v -0.100000 0.156072 -0.784628
v -0.100000 0.306147 -0.739104
v -0.100000 0.444456 -0.665176
v -0.100000 0.565685 -0.565686
v -0.100000 0.665176 -0.444456
v -0.100000 0.739104 -0.306147
v -0.100000 0.784628 -0.156072
v -0.100000 0.800000 -0.000000
v -0.100000 0.784628 0.156072
v -0.100000 0.739104 0.306147
v -0.100000 0.665176 0.444456
v -0.100000 0.565685 0.565685
v -0.100000 0.444456 0.665176
v -0.100000 0.306147 0.739104
v -0.100000 0.156072 0.784628
v -0.100000 -0.000000 0.800000
v -0.100000 -0.156073 0.784628
v -0.100000 -0.306147 0.739103
v -0.100000 -0.444457 0.665175
v -0.100000 -0.565686 0.565685
v -0.100000 -0.665176 0.444456
v -0.100000 -0.739104 0.306146
v -0.100000 -0.784628 0.156072
v -0.100000 -0.800000 -0.000001
v -0.100000 -0.784628 -0.156073
v -0.100000 -0.739103 -0.306148
v -0.100000 -0.665175 -0.444457
v -0.100000 -0.565685 -0.565686
v -0.100000 -0.444455 -0.665176
v -0.100000 -0.306146 -0.739104
v -0.100000 -0.156071 -0.784629
v -0.100000 0.000000 -0.000000
v -0.100000 0.000000 -0.000000
v -0.100000 0.000000 -0.000000
v -0.100000 0.000000 -0.000000
v -0.100000 0.000000 -0.000000
v -0.100000 0.000000 -0.000000
v -0.100000 0.000000 -0.000000
v -0.100000 0.000000 -0.000000
v -0.100000 0.000000 -0.000000
v -0.100000 0.000000 -0.000000
v -0.100000 0.000000 -0.000000
v -0.100000 0.000000 -0.000000
v -0.100000 0.000000 -0.000000
v -0.100000 0.000000 -0.000000
v -0.100000 0.000000 -0.000000
v -0.100000 0.000000 -0.000000
v -0.100000 0.000000 -0.000000
v -0.100000 0.000000 -0.000000
v -0.100000 0.000000 -0.000000
v -0.100000 0.000000 -0.000000
v -0.100000 0.000000 -0.000000
v -0.100000 0.000000 -0.000000
v -0.100000 0.000000 -0.000000
v -0.100000 0.000000 -0.000000
v -0.100000 0.000000 -0.000000
v -0.100000 0.000000 -0.000000
v -0.100000 0.000000 -0.000000
v -0.100000 0.000000 -0.000000
v -0.100000 0.000000 -0.000000
v -0.100000 0.000000 -0.000000
v -0.100000 0.000000 -0.000000
v -0.100000 0.000000 -0.000000
vn 0.0000 0.7730 0.6344
vn 0.0000 -0.9569 -0.2903
vn 0.0000 0.6344 0.7730
vn 0.0000 -0.8819 -0.4714
vn -0.0000 0.4714 0.8819
vn 0.0000 0.0980 -0.9952
vn 0.0000 -0.7730 -0.6344
vn -0.0000 0.2903 0.9569
vn 0.0000 0.2903 -0.9569
vn 0.0000 -0.6344 -0.7730
vn 0.0000 0.0980 0.9952
vn 0.0000 0.4714 -0.8819
vn 0.0000 -0.4714 -0.8819
vn -0.0000 -0.0980 0.9952
vn 0.0000 0.6344 -0.7730
vn 0.0000 -0.2903 -0.9569
vn 0.0000 -0.2903 0.9569
vn 0.0000 0.7730 -0.6344
vn -0.0000 -0.0980 -0.9952
vn -0.0000 -0.4714 0.8819
vn 0.0000 0.8819 -0.4714
vn 0.0000 -0.6344 0.7730
vn 0.0000 0.9569 -0.2903
vn 0.0000 -0.7730 0.6344
vn 0.0000 0.9952 -0.0980
vn 0.0000 -0.8819 0.4714
vn 0.0000 0.9952 0.0980
vn 0.0000 -0.9569 0.2903
vn 0.0000 0.9569 0.2903
vn 0.0000 -0.9952 0.0980
vn 0.0000 0.8819 0.4714
vn 0.0000 -0.9952 -0.0980
vn 1.0000 0.0000 -0.0000
vn -1.0000 -0.0000 -0.0000
usemtl None
s off
f 141//1 13//1 12//1 140//1
f 155//2 27//2 26//2 154//2
f 142//3 14//3 13//3 141//3
f 156//4 28//4 27//4 155//4
f 143//5 15//5 14//5 142//5
f 130//6 2//6 1//6 129//6
f 157//7 29//7 28//7 156//7
f 144//8 16//8 15//8 143//8
f 131//9 3//9 2//9 130//9
f 158//10 30//10 29//10 157//10
f 145//11 17//11 16//11 144//11
f 132//12 4//12 3//12 131//12
f 159//13 31//13 30//13 158//13
f 146//14 18//14 17//14 145//14
f 133//15 5//15 4//15 132//15
f 160//16 32//16 31//16 159//16
f 147//17 19//17 18//17 146//17
f 134//18 6//18 5//18 133//18
f 129//19 1//19 32//19 160//19
f 148//20 20//20 19//20 147//20
f 135//21 7//21 6//21 134//21
f 149//22 21//22 20//22 148//22
f 136//23 8//23 7//23 135//23
f 150//24 22//24 21//24 149//24
f 137//25 9//25 8//25 136//25
f 151//26 23//26 22//26 150//26
f 138//27 10//27 9//27 137//27
f 152//28 24//28 23//28 151//28
f 139//29 11//29 10//29 138//29
f 153//30 25//30 24//30 152//30
f 140//31 12//31 11//31 139//31
f 154//32 26//32 25//32 153//32
f 21//33 53//33 52//33 20//33
f 8//33 40//33 39//33 7//33
f 22//33 54//33 53//33 21//33
f 9//33 41//33 40//33 8//33
f 23//33 55//33 54//33 22//33
f 10//33 42//33 41//33 9//33
f 24//33 56//33 55//33 23//33
f 11//33 43//33 42//33 10//33
f 25//33 57//33 56//33 24//33
f 12//33 44//33 43//33 11//33
f 26//33 58//33 57//33 25//33
f 13//33 45//33 44//33 12//33
f 27//33 59//33 58//33 26//33
f 14//33 46//33 45//33 13//33
f 28//33 60//33 59//33 27//33
f 15//33 47//33 46//33 14//33
f 2//33 34//33 33//33 1//33
f 29//33 61//33 60//33 28//33
f 16//33 48//33 47//33 15//33
f 3//33 35//33 34//33 2//33
f 30//33 62//33 61//33 29//33
f 17//33 49//33 48//33 16//33
f 4//33 36//33 35//33 3//33
f 31//33 63//33 62//33 30//33
f 18//33 50//33 49//33 17//33
f 5//33 37//33 36//33 4//33
f 32//33 64//33 63//33 31//33
f 19//33 51//33 50//33 18//33
f 6//33 38//33 37//33 5//33
f 1//33 33//33 64//33 32//33
f 20//33 52//33 51//33 19//33
f 7//33 39//33 38//33 6//33
f 56//23 88//23 87//23 55//23
f 43//2 75//2 74//2 42//2
f 57//25 89//25 88//25 56//25
f 44//4 76//4 75//4 43//4
f 58//27 90//27 89//27 57//27
f 45//7 77//7 76//7 44//7
f 59//29 91//29 90//29 58//29
f 46//10 78//10 77//10 45//10
f 60//31 92//31 91//31 59//31
f 47//13 79//13 78//13 46//13
f 34//14 66//14 65//14 33//14
f 61//1 93//1 92//1 60//1
f 48//16 80//16 79//16 47//16
f 35//17 67//17 66//17 34//17
f 62//3 94//3 93//3 61//3
f 49//19 81//19 80//19 48//19
f 36//20 68//20 67//20 35//20
f 63//5 95//5 94//5 62//5
f 50//6 82//6 81//6 49//6
f 37//22 69//22 68//22 36//22
f 64//8 96//8 95//8 63//8
f 51//9 83//9 82//9 50//9
f 38//24 70//24 69//24 37//24
f 33//11 65//11 96//11 64//11
f 52//12 84//12 83//12 51//12
f 39//26 71//26 70//26 38//26
f 53//15 85//15 84//15 52//15
f 40//28 72//28 71//28 39//28
f 54//18 86//18 85//18 53//18
f 41//30 73//30 72//30 40//30
f 55//21 87//21 86//21 54//21
f 42//32 74//32 73//32 41//32
f 91//33 123//33 122//33 90//33
f 78//33 110//33 109//33 77//33
f 92//33 124//33 123//33 91//33
f 79//33 111//33 110//33 78//33
f 66//33 98//33 97//33 65//33
f 93//33 125//33 124//33 92//33
f 80//33 112//33 111//33 79//33
f 67//33 99//33 98//33 66//33
f 94//33 126//33 125//33 93//33
f 81//33 113//33 112//33 80//33
f 68//33 100//33 99//33 67//33
f 95//33 127//33 126//33 94//33
f 82//33 114//33 113//33 81//33
f 69//33 101//33 100//33 68//33
f 96//33 128//33 127//33 95//33
f 83//33 115//33 114//33 82//33
f 70//33 102//33 101//33 69//33
f 65//33 97//33 128//33 96//33
f 84//33 116//33 115//33 83//33
f 71//33 103//33 102//33 70//33
f 85//33 117//33 116//33 84//33
f 72//33 104//33 103//33 71//33
f 86//33 118//33 117//33 85//33
f 73//33 105//33 104//33 72//33
f 87//33 119//33 118//33 86//33
f 74//33 106//33 105//33 73//33
f 88//33 120//33 119//33 87//33
f 75//33 107//33 106//33 74//33
f 89//33 121//33 120//33 88//33
f 76//33 108//33 107//33 75//33
f 90//33 122//33 121//33 89//33
f 77//33 109//33 108//33 76//33
f 141//1 140//1 172//1 173//1
f 155//2 154//2 186//2 187//2
f 142//3 141//3 173//3 174//3
f 156//4 155//4 187//4 188//4
f 143//5 142//5 174//5 175//5
f 130//6 129//6 161//6 162//6
f 157//7 156//7 188//7 189//7
f 144//8 143//8 175//8 176//8
f 131//9 130//9 162//9 163//9
f 158//10 157//10 189//10 190//10
f 145//11 144//11 176//11 177//11
f 132//12 131//12 163//12 164//12
f 159//13 158//13 190//13 191//13
f 146//14 145//14 177//14 178//14
f 133//15 132//15 164//15 165//15
f 160//16 159//16 191//16 192//16
f 147//17 146//17 178//17 179//17
f 134//18 133//18 165//18 166//18
f 129//19 160//19 192//19 161//19
f 148//20 147//20 179//20 180//20
f 135//21 134//21 166//21 167//21
f 149//22 148//22 180//22 181//22
f 136//23 135//23 167//23 168//23
f 150//24 149//24 181//24 182//24
f 137//25 136//25 168//25 169//25
f 151//26 150//26 182//26 183//26
f 138//27 137//27 169//27 170//27
f 152//28 151//28 183//28 184//28
f 139//29 138//29 170//29 171//29
f 153//30 152//30 184//30 185//30
f 140//31 139//31 171//31 172//31
f 154//32 153//32 185//32 186//32
f 181//34 180//34 212//34 213//34
f 168//34 167//34 199//34 200//34
f 182//34 181//34 213//34 214//34
f 169//34 168//34 200//34 201//34
f 183//34 182//34 214//34 215//34
f 170//34 169//34 201//34 202//34
f 184//34 183//34 215//34 216//34
f 171//34 170//34 202//34 203//34
f 185//34 184//34 216//34 217//34
f 172//34 171//34 203//34 204//34
f 186//34 185//34 217//34 218//34
f 173//34 172//34 204//34 205//34
f 187//34 186//34 218//34 219//34
f 174//34 173//34 205//34 206//34
f 188//34 187//34 219//34 220//34
f 175//34 174//34 206//34 207//34
f 162//34 161//34 193//34 194//34
f 189//34 188//34 220//34 221//34
f 176//34 175//34 207//34 208//34
f 163//34 162//34 194//34 195//34
f 190//34 189//34 221//34 222//34
f 177//34 176//34 208//34 209//34
f 164//34 163//34 195//34 196//34
f 191//34 190//34 222//34 223//34
f 178//34 177//34 209//34 210//34
f 165//34 164//34 196//34 197//34
f 192//34 191//34 223//34 224//34
f 179//34 178//34 210//34 211//34
f 166//34 165//34 197//34 198//34
f 161//34 192//34 224//34 193//34
f 180//34 179//34 211//34 212//34
f 167//34 166//34 198//34 199//34
f 216//23 215//23 247//23 248//23
f 203//2 202//2 234//2 235//2
f 217//25 216//25 248//25 249//25
f 204//4 203//4 235//4 236//4
f 218//27 217//27 249//27 250//27
f 205//7 204//7 236//7 237//7
f 219//29 218//29 250//29 251//29
f 206//10 205//10 237//10 238//10
f 220//31 219//31 251//31 252//31
f 207//13 206//13 238//13 239//13
f 194//14 193//14 225//14 226//14
f 221//1 220//1 252//1 253//1
f 208//16 207//16 239//16 240//16
f 195//17 194//17 226//17 227//17
f 222//3 221//3 253//3 254//3
f 209//19 208//19 240//19 241//19
f 196//20 195//20 227//20 228//20
f 223//5 222//5 254//5 255//5
f 210//6 209//6 241//6 242//6
f 197//22 196//22 228//22 229//22
f 224//8 223//8 255//8 256//8
f 211//9 210//9 242//9 243//9
f 198//24 197//24 229//24 230//24
f 193//11 224//11 256//11 225//11
f 212//12 211//12 243//12 244//12
f 199//26 198//26 230//26 231//26
f 213//15 212//15 244//15 245//15
f 200//28 199//28 231//28 232//28
f 214//18 213//18 245//18 246//18
f 201//30 200//30 232//30 233//30
f 215//21 214//21 246//21 247//21
f 202//32 201//32 233//32 234//32
f 251//34 250//34 282//34 283//34
f 238//34 237//34 269//34 270//34
f 252//34 251//34 283//34 284//34
f 239//34 238//34 270//34 271//34
f 226//34 225//34 257//34 258//34
f 253//34 252//34 284//34 285//34
f 240//34 239//34 271//34 272//34
f 227//34 226//34 258//34 259//34
f 254//34 253//34 285//34 286//34
f 241//34 240//34 272//34 273//34
f 228//34 227//34 259//34 260//34
f 255//34 254//34 286//34 287//34
f 242//34 241//34 273//34 274//34
f 229//34 228//34 260//34 261//34
f 256//34 255//34 287//34 288//34
f 243//34 242//34 274//34 275//34
f 230//34 229//34 261//34 262//34
f 225//34 256//34 288//34 257//34
f 244//34 243//34 275//34 276//34
f 231//34 230//34 262//34 263//34
f 245//34 244//34 276//34 277//34
f 232//34 231//34 263//34 264//34
f 246//34 245//34 277//34 278//34
f 233//34 232//34 264//34 265//34
f 247//34 246//34 278//34 279//34
f 234//34 233//34 265//34 266//34
f 248//34 247//34 279//34 280//34
f 235//34 234//34 266//34 267//34
f 249//34 248//34 280//34 281//34
f 236//34 235//34 267//34 268//34
f 250//34 249//34 281//34 282//34
f 237//34 236//34 268//34 269//34
