# Blender v2.79 (sub 0) OBJ File: 'spike-box.blend'
# www.blender.org
mtllib spike-bar.mtl
o Cube
v 1.000000 -0.250000 1.000000
v -1.000000 -0.250000 1.000000
v 0.999999 0.250000 1.000001
v -1.000000 0.250000 1.000000
v 0.000000 -0.250000 1.000000
v -0.000001 0.250000 1.000000
v -0.500000 -0.250000 1.000000
v -0.500000 0.250000 1.000000
v 0.500000 -0.250000 1.000000
v 0.499999 0.250000 1.000000
v -0.750000 -0.250000 1.000000
v 0.999999 0.000000 1.000000
v -0.750000 0.250000 1.000000
v 0.250000 -0.250000 1.000000
v 0.249999 0.250000 1.000000
v -0.250000 -0.250000 1.000000
v -0.250001 0.250000 1.000000
v 0.750000 -0.250000 1.000000
v -1.000000 0.000000 1.000000
v 0.749999 0.250000 1.000000
v -0.000000 0.000000 1.000000
v 0.499999 0.000000 1.000000
v -0.500000 0.000000 1.000000
v -0.250000 0.000000 1.000000
v 0.749999 0.000000 1.000000
v 0.249999 0.000000 1.000000
v -0.750000 0.000000 1.000000
v -0.875000 -0.250000 1.000000
v 0.999999 0.125000 1.000000
v -1.000000 0.125000 1.000000
v -0.875000 0.250000 1.000000
v 0.125000 -0.250000 1.000000
v 0.124999 0.250000 1.000000
v -0.000000 -0.125000 1.000000
v -0.375000 -0.250000 1.000000
v -0.375000 0.250000 1.000000
v 0.625000 -0.250000 1.000000
v 0.623500 0.250000 1.000000
v 0.500000 -0.125000 1.000000
v -0.500000 -0.125000 1.000000
v -0.625000 -0.250000 1.000000
v -0.625000 0.250000 1.000000
v 0.375000 -0.250000 1.000000
v 0.374999 0.250000 1.000000
v -0.125000 -0.250000 1.000000
v -0.125001 0.250000 1.000000
v 0.875000 -0.250000 1.000000
v 1.000000 -0.125000 1.000000
v -1.000000 -0.125000 1.000000
v 0.874999 0.250000 1.000000
v -0.000001 0.125000 1.000000
v 0.499999 0.125000 1.000000
v -0.500000 0.125000 1.000000
v -0.375000 0.000000 1.000000
v -0.125000 0.000000 1.000000
v -0.250000 0.125000 1.000000
v -0.250000 -0.125000 1.000000
v -0.875000 0.000000 1.000000
v -0.750000 -0.125000 1.000000
v 0.750000 -0.125000 1.000000
v 0.250000 -0.125000 1.000000
v 0.624999 0.000000 1.000000
v 0.874999 0.000000 1.000000
v 0.749999 0.125000 1.000000
v 0.125000 0.000000 1.000000
v 0.374999 0.000000 1.000000
v 0.249999 0.125000 1.000000
v -0.625000 0.000000 1.000000
v -0.750000 0.125000 1.000000
v -0.625000 0.125000 1.000000
v 0.374999 0.125000 1.000000
v 0.874999 0.125000 1.000000
v 0.375000 -0.125000 1.406070
v 0.125000 -0.125000 1.000000
v 0.875000 -0.125000 1.406070
v 0.625000 -0.125000 1.000000
v -0.625000 -0.125000 1.406070
v -0.875000 -0.125000 1.000000
v -0.125000 -0.125000 1.406070
v -0.375000 -0.125000 1.000000
v -0.125000 0.125000 1.000000
v -0.375000 0.125000 1.406070
v 0.623500 0.250000 0.500000
v 0.875000 0.250000 0.500000
v -1.000000 -0.125000 0.500000
v 1.000000 -0.125000 0.500000
v 0.875000 -0.250000 0.500000
v -0.125000 0.250000 0.500000
v -0.125000 -0.250000 0.500000
v 0.375000 0.250000 0.500000
v 0.375000 -0.250000 0.500000
v -0.625000 0.250000 0.500000
v -0.625000 -0.250000 0.500000
v 0.624999 0.125000 1.406070
v 0.625000 -0.250000 0.500000
v -0.375000 0.250000 0.500000
v -0.375000 -0.250000 0.500000
v 0.125000 0.250000 0.500000
v 0.125000 -0.250000 0.500000
v -0.875000 0.250000 0.500000
v -1.000000 0.125000 0.500000
v 1.000000 0.125000 0.500000
v -0.875000 -0.250000 0.500000
v 0.750000 0.250000 0.500000
v -1.000000 0.000000 0.500000
v 0.750000 -0.250000 0.500000
v -0.250000 0.250000 0.500000
v -0.250000 -0.250000 0.500000
v 0.250000 0.250000 0.500000
v 0.250000 -0.250000 0.500000
v -0.750000 0.250000 0.500000
v 1.000000 0.000000 0.500000
v -0.750000 -0.250000 0.500000
v 0.500000 0.250000 0.500000
v 0.500000 -0.250000 0.500000
v 0.124999 0.125000 1.406070
v -0.500000 0.250000 0.500000
v -0.500000 -0.250000 0.500000
v -0.000000 0.250000 0.500000
v 0.000000 -0.250000 0.500000
v -0.875000 0.125000 1.406070
v -1.000000 0.250000 0.500000
v 1.000000 0.250000 0.500001
v -1.000000 -0.250000 0.500000
v 1.000000 -0.250000 0.500000
vn 0.0000 -1.0000 0.0000
vn -0.6909 0.6909 0.2127
vn 0.0000 1.0000 0.0000
vn -1.0000 -0.0000 -0.0000
vn -0.6949 0.6866 0.2139
vn 0.0000 0.0000 1.0000
vn -0.6909 -0.6909 0.2127
vn 0.6909 0.6909 0.2127
vn 1.0000 0.0000 0.0000
vn 0.6870 0.6952 0.2115
vn 0.0000 0.0000 -1.0000
vn 0.6909 -0.6909 0.2127
usemtl Material
s off
f 28//1 2//1 124//1 103//1
f 121//2 31//2 30//2
f 116//2 33//2 51//2
f 16//1 35//1 97//1 108//1
f 20//3 50//3 84//3 104//3
f 38//3 20//3 104//3 83//3
f 4//4 122//4 101//4 30//4
f 9//1 43//1 91//1 115//1
f 94//5 38//5 52//5
f 82//2 36//2 53//2
f 2//4 49//4 85//4 124//4
f 33//3 15//3 109//3 98//3
f 14//1 32//1 99//1 110//1
f 46//3 6//3 119//3 88//3
f 6//3 33//3 98//3 119//3
f 40//6 7//6 35//6 80//6
f 79//2 55//2 57//2
f 61//6 26//6 65//6 74//6
f 77//2 68//2 59//2
f 52//6 71//6 66//6 22//6
f 59//6 27//6 58//6 78//6
f 75//2 63//2 60//2
f 42//6 13//6 69//6 70//6
f 34//6 5//6 32//6 74//6
f 73//2 66//2 61//2
f 5//1 45//1 89//1 120//1
f 19//4 30//4 101//4 105//4
f 44//3 10//3 114//3 90//3
f 41//1 11//1 113//1 93//1
f 37//1 9//1 115//1 95//1
f 43//1 14//1 110//1 91//1
f 15//3 44//3 90//3 109//3
f 53//6 8//6 42//6 70//6
f 29//6 72//6 63//6 12//6
f 57//6 24//6 54//6 80//6
f 60//6 76//6 37//6 18//6
f 61//6 74//6 32//6 14//6
f 51//6 6//6 46//6 81//6
f 8//3 36//3 96//3 117//3
f 31//3 100//3 122//3 4//3
f 51//6 81//6 55//6 21//6
f 39//6 9//6 37//6 76//6
f 64//6 25//6 63//6 72//6
f 67//6 26//6 66//6 71//6
f 29//6 3//6 50//6 72//6
f 54//6 23//6 40//6 80//6
f 56//6 24//6 55//6 81//6
f 43//7 73//7 61//7
f 9//6 39//6 43//6
f 39//8 66//8 73//8
f 47//7 75//7 60//7
f 48//8 63//8 75//8
f 44//6 15//6 67//6 71//6
f 60//6 25//6 62//6 76//6
f 41//7 77//7 59//7
f 7//6 40//6 41//6
f 40//8 68//8 77//8
f 28//6 78//6 49//6 2//6
f 58//6 19//6 49//6 78//6
f 53//6 70//6 68//6 23//6
f 69//6 27//6 68//6 70//6
f 59//6 78//6 28//6 11//6
f 45//7 79//7 57//7
f 5//6 34//6 45//6
f 34//8 55//8 79//8
f 62//6 22//6 39//6 76//6
f 35//1 7//1 118//1 97//1
f 42//3 8//3 117//3 92//3
f 13//3 42//3 92//3 111//3
f 1//9 125//9 86//9 48//9
f 18//1 37//1 95//1 106//1
f 47//1 18//1 106//1 87//1
f 3//9 29//9 102//9 123//9
f 7//1 41//1 93//1 118//1
f 47//1 87//1 125//1 1//1
f 12//9 48//9 86//9 112//9
f 52//6 10//6 44//6 71//6
f 65//6 21//6 34//6 74//6
f 50//6 20//6 64//6 72//6
f 57//6 80//6 35//6 16//6
f 46//6 17//6 56//6 81//6
f 50//3 3//3 123//3 84//3
f 45//1 16//1 108//1 89//1
f 49//4 19//4 105//4 85//4
f 54//6 53//6 23//6
f 24//6 56//6 54//6
f 56//8 36//8 82//8
f 62//7 94//7 52//7
f 25//6 64//6 62//6
f 64//10 38//10 94//10
f 31//3 13//3 111//3 100//3
f 10//3 38//3 83//3 114//3
f 32//1 5//1 120//1 99//1
f 17//3 46//3 88//3 107//3
f 36//3 17//3 107//3 96//3
f 65//7 116//7 51//7
f 26//6 67//6 65//6
f 67//8 33//8 116//8
f 58//6 30//6 19//6
f 27//6 69//6 58//6
f 69//8 31//8 121//8
f 29//9 12//9 112//9 102//9
f 104//11 84//11 87//11 106//11
f 36//6 56//6 17//6
f 33//6 67//6 15//6
f 38//6 64//6 20//6
f 63//6 48//6 12//6
f 31//6 69//6 13//6
f 66//6 39//6 22//6
f 55//6 34//6 21//6
f 68//6 40//6 23//6
f 59//6 11//6 41//6
f 57//6 16//6 45//6
f 61//6 14//6 43//6
f 60//6 18//6 47//6
f 30//7 58//7 121//7
f 53//7 54//7 82//7
f 51//6 21//6 65//6
f 52//6 22//6 62//6
f 11//1 28//1 103//1 113//1
f 53//6 36//6 8//6
f 58//12 69//12 121//12
f 54//12 56//12 82//12
f 51//6 33//6 6//6
f 65//12 67//12 116//12
f 52//6 38//6 10//6
f 62//12 64//12 94//12
f 59//6 68//6 27//6
f 41//12 40//12 77//12
f 57//6 55//6 24//6
f 45//12 34//12 79//12
f 61//6 66//6 26//6
f 43//12 39//12 73//12
f 60//6 63//6 25//6
f 47//12 48//12 75//12
f 30//6 31//6 4//6
f 47//6 1//6 48//6
f 123//11 102//11 84//11
f 102//11 112//11 84//11
f 87//11 112//11 86//11 125//11
f 112//11 87//11 84//11
f 95//11 83//11 104//11 106//11
f 114//11 83//11 95//11 115//11
f 90//11 114//11 115//11 91//11
f 110//11 109//11 90//11 91//11
f 99//11 98//11 109//11 110//11
f 119//11 98//11 99//11 120//11
f 119//11 120//11 89//11 88//11
f 107//11 88//11 89//11 108//11
f 97//11 96//11 107//11 108//11
f 117//11 96//11 97//11 118//11
f 92//11 117//11 118//11 93//11
f 111//11 92//11 93//11 113//11
f 100//11 111//11 113//11 103//11
f 124//11 85//11 103//11
f 105//11 103//11 85//11
f 122//11 100//11 101//11
f 101//11 100//11 105//11
f 100//11 103//11 105//11
